HIERARCHY
ROOT Hips
{
	OFFSET 0.00000 0.00000 0.00000
	CHANNELS 6 Xposition Yposition Zposition Zrotation Yrotation Xrotation 
	JOINT LHipJoint
	{
		OFFSET 0 0 0
		CHANNELS 3 Zrotation Yrotation Xrotation
		JOINT LeftHip
		{
			OFFSET 1.85590 -1.73949 0.84976
			CHANNELS 3 Zrotation Yrotation Xrotation
			JOINT LeftKnee
			{
				OFFSET 2.36836 -6.50702 0.00000
				CHANNELS 3 Zrotation Yrotation Xrotation
				JOINT LeftAnkle
				{
					OFFSET 2.53268 -6.95849 0.00000
					CHANNELS 3 Zrotation Yrotation Xrotation
					JOINT LeftToe
					{
						OFFSET 0.15935 -0.43781 1.94506
						CHANNELS 3 Zrotation Yrotation Xrotation
						End Site
						{
							OFFSET 0.00000 -0.00000 1.00661
						}
					}
				}
			}
		}
	}
	JOINT RHipJoint
	{
		OFFSET 0 0 0
		CHANNELS 3 Zrotation Yrotation Xrotation
		JOINT RightHip
		{
			OFFSET -1.68297 -1.73949 0.84976
			CHANNELS 3 Zrotation Yrotation Xrotation
			JOINT RightKnee
			{
				OFFSET -2.44709 -6.72334 0.00000
				CHANNELS 3 Zrotation Yrotation Xrotation
				JOINT RightAnkle
				{
					OFFSET -2.43843 -6.69953 0.00000
					CHANNELS 3 Zrotation Yrotation Xrotation
					JOINT RightToe
					{
						OFFSET -0.20854 -0.57295 2.02172
						CHANNELS 3 Zrotation Yrotation Xrotation
						End Site
						{
							OFFSET -0.00000 -0.00000 1.05594
						}
					}
				}
			}
		}
	}
	JOINT lowerback
	{
		OFFSET 0 0 0
		CHANNELS 3 Zrotation Yrotation Xrotation
		JOINT Chest
		{
			OFFSET -0.01560 2.23971 -0.03712
			CHANNELS 3 Zrotation Yrotation Xrotation
			JOINT Chest2
			{
				OFFSET 0.05490 2.19225 -0.19086
				CHANNELS 3 Zrotation Yrotation Xrotation
				JOINT lowerneck
				{
					OFFSET 0 0 0
					CHANNELS 3 Zrotation Yrotation Xrotation
					JOINT Neck
					{
						OFFSET -0.12403 1.43168 0.27585
						CHANNELS 3 Zrotation Yrotation Xrotation
						JOINT Head
						{
							OFFSET 0.17855 1.46173 -0.32578
							CHANNELS 3 Zrotation Yrotation Xrotation
							End Site
							{
								OFFSET 0.07217 1.51590 -0.14537
							}
						}
					}
				}
				JOINT LeftCollar
				{
					OFFSET 0 0 0
					CHANNELS 3 Zrotation Yrotation Xrotation
					JOINT LeftShoulder
					{
						OFFSET 3.27650 0.85634 0.05396
CHANNELS 3 Zrotation Xrotation Yrotation
						JOINT LeftElbow
						{
OFFSET 0 -4.967550 0.000000
CHANNELS 3 Zrotation Xrotation Yrotation
							JOINT LeftWrist
							{
OFFSET 0 -3.357510 0.000000
CHANNELS 3 Zrotation Xrotation Yrotation
								JOINT lhand
								{
									OFFSET 0 0 0
CHANNELS 3 Zrotation Xrotation Yrotation
									JOINT LFingers
									{
OFFSET 0 -0.796970 0.000000
CHANNELS 3 Zrotation Xrotation Yrotation
										End Site
										{
OFFSET 0 -0.642540 0.000000
										}
									}
								}
								JOINT LThumb
								{
OFFSET 0 0.000000 0.000000
CHANNELS 3 Zrotation Xrotation Yrotation
									End Site
									{
OFFSET 0 -0.652350 0.652350
									}
								}
							}
						}
					}
				}
				JOINT RightCollar
				{
					OFFSET 0 0 0
					CHANNELS 3 Zrotation Yrotation Xrotation
					JOINT RightShoulder
					{
						OFFSET -3.24434 1.02034 0.34688
CHANNELS 3 Zrotation Xrotation Yrotation
						JOINT RightElbow
						{
OFFSET 0 -5.218590 -0.000000
CHANNELS 3 Zrotation Xrotation Yrotation
							JOINT RightWrist
							{
OFFSET 0 -3.365040 0.000000
CHANNELS 3 Zrotation Xrotation Yrotation
								JOINT rhand
								{
									OFFSET 0 0 0
CHANNELS 3 Zrotation Xrotation Yrotation
									JOINT RFingers
									{
OFFSET 0 -0.620440 0.000000
CHANNELS 3 Zrotation Xrotation Yrotation
										End Site
										{
OFFSET 0 -0.500220 0.000000
										}
									}
								}
								JOINT RThumb
								{
OFFSET 0 0.000000 0.000000
CHANNELS 3 Zrotation Xrotation Yrotation
									End Site
									{
OFFSET 0 -0.507860 0.507860
									}
								}
							}
						}
					}
				}
			}
		}
	}
}
MOTION
Frames: 6
Frame Time: 0.008333333333333333
8.400971 16.459170 -2.318689 -7.575719 -7.970589 10.040567 0.000000 0.000000 0.000000 -6.099099 -11.152807 -43.359702 1.162827 6.843530 19.253489 0.808165 4.357705 -19.111490 0.726639 -5.444541 -15.181543 0.000000 0.000000 0.000000 29.764693 -4.348105 20.004321 0.000000 0.000000 0.000000 0.022631 5.070639 6.374747 -0.818992 5.765982 -16.109168 6.068640 3.248892 -6.348317 3.813403 3.751726 -0.319548 0.904989 1.924174 3.362411 -12.896061 -2.822523 -21.056755 6.998407 -1.484919 21.392062 4.445891 -0.892277 10.505478 0.000000 0.000000 0.000000 7.615856 22.259993 -36.677681 11.366792 -18.847682 1.893136 9.615933 -1.244414 24.193320 0.000000 0.000000 0.000000 -7.125000 0.000000 0.000000 -12.117053 5.934578 -11.054989 0.000000 0.000000 0.000000 -12.715052 -14.832308 57.733316 -31.093039 -41.811951 -12.131884 -39.297345 -7.913987 14.667021 0.000000 0.000000 0.000000 7.125000 0.000000 0.000000 -11.535200 48.325871 0.969725
8.404514 16.444911 -2.171068 -7.653357 -8.011966 9.923301 0.000000 0.000000 0.000000 -6.188896 -11.015421 -43.373305 1.224281 7.014989 19.760868 0.837296 3.919916 -19.141670 0.770116 -5.600822 -15.631230 0.000000 0.000000 0.000000 29.635880 -4.623314 20.532564 0.000000 0.000000 0.000000 -0.028107 4.402517 7.186641 -0.730375 5.448345 -15.194705 6.099520 3.262276 -6.311751 3.843408 3.769178 -0.313643 0.918767 1.932922 3.348633 -12.722984 -2.811370 -20.992064 6.782421 -1.479758 21.369186 4.336673 -0.902031 10.482033 0.000000 0.000000 0.000000 7.516567 22.531178 -36.230444 11.171976 -18.550647 1.830807 9.178800 -0.735242 24.106759 0.000000 0.000000 0.000000 -7.125000 0.000000 0.000000 -12.382158 6.065534 -11.276967 0.000000 0.000000 0.000000 -12.698956 -14.736125 57.705148 -31.209518 -41.907653 -12.209653 -38.683635 -8.385762 14.122464 0.000000 0.000000 0.000000 7.125000 0.000000 0.000000 -10.881599 47.549012 0.707375
8.408384 16.430662 -2.021839 -7.720047 -8.054989 9.812683 0.000000 0.000000 0.000000 -6.293549 -10.882494 -43.385122 1.290634 7.196619 20.299837 0.859957 3.455417 -19.099817 0.786892 -5.658968 -15.799056 0.000000 0.000000 0.000000 29.489015 -4.891315 21.053001 0.000000 0.000000 0.000000 -0.079228 3.748185 7.982295 -0.666683 5.221140 -14.540320 6.136767 3.279699 -6.322471 3.857128 3.786612 -0.292808 0.915923 1.942726 3.378505 -12.516372 -2.800216 -20.910255 6.540576 -1.480608 21.314206 4.210777 -0.914262 10.443911 0.000000 0.000000 0.000000 7.437846 22.771325 -35.783516 10.983115 -18.262203 1.770759 8.789290 -0.253677 24.021928 0.000000 0.000000 0.000000 -7.125000 0.000000 0.000000 -12.618310 6.189535 -11.472713 0.000000 0.000000 0.000000 -12.670332 -14.668157 57.670248 -31.305185 -41.986228 -12.273530 -38.150233 -8.754363 13.676369 0.000000 0.000000 0.000000 7.125000 0.000000 0.000000 -10.316692 46.907881 0.491171
8.413458 16.416446 -1.866695 -7.746465 -8.104065 9.726516 0.000000 0.000000 0.000000 -6.452848 -10.765972 -43.390371 1.375008 7.415667 20.955012 0.858820 2.892664 -18.792984 0.705449 -5.356115 -14.930038 0.000000 0.000000 0.000000 29.275741 -5.132802 21.544721 0.000000 0.000000 0.000000 -0.131759 3.144579 8.718214 -0.694677 5.326596 -14.842648 6.197434 3.311979 -6.507140 3.810939 3.803976 -0.217051 0.851932 1.956417 3.568947 -12.186401 -2.789062 -20.765477 6.203606 -1.503571 21.141129 4.023528 -0.935607 10.351796 0.000000 0.000000 0.000000 7.434784 22.897295 -35.337722 10.816161 -18.005364 1.719103 8.574966 0.126333 23.943459 0.000000 0.000000 0.000000 -7.125000 0.000000 0.000000 -12.747954 6.287949 -11.571958 0.000000 0.000000 0.000000 -12.595625 -14.703979 57.610587 -31.324300 -42.001799 -12.286302 -37.912246 -8.743428 13.592476 0.000000 0.000000 0.000000 7.125000 0.000000 0.000000 -10.078049 46.766034 0.444720
8.418532 16.402231 -1.711551 -7.772884 -8.153141 9.640349 0.000000 0.000000 0.000000 -6.612148 -10.649450 -43.395619 1.459381 7.634715 21.610187 0.857682 2.329910 -18.486151 0.624006 -5.053263 -14.061020 0.000000 0.000000 0.000000 29.062466 -5.374288 22.036441 0.000000 0.000000 0.000000 -0.184290 2.540973 9.454132 -0.722670 5.432052 -15.144975 6.258101 3.344259 -6.691808 3.764750 3.821341 -0.141294 0.787941 1.970107 3.759389 -11.856429 -2.777909 -20.620699 5.866637 -1.526535 20.968051 3.836279 -0.956952 10.259680 0.000000 0.000000 0.000000 7.431722 23.023265 -34.891929 10.649207 -17.748526 1.667446 8.360643 0.506342 23.864990 0.000000 0.000000 0.000000 -7.125000 0.000000 0.000000 -12.877598 6.386363 -11.671203 0.000000 0.000000 0.000000 -12.520918 -14.739802 57.550927 -31.343414 -42.017371 -12.299074 -37.674259 -8.732493 13.508584 0.000000 0.000000 0.000000 7.125000 0.000000 0.000000 -9.839406 46.624187 0.398269
8.425269 16.388746 -1.558394 -7.786930 -8.130534 9.580997 0.000000 0.000000 0.000000 -6.729338 -10.670330 -43.456973 1.566838 7.892180 22.390513 0.792895 2.023544 -17.649789 0.549378 -4.733696 -13.153220 0.000000 0.000000 0.000000 28.845217 -5.649242 22.442077 0.000000 0.000000 0.000000 -0.250331 1.874000 10.287210 -0.805714 5.717872 -15.970910 6.260472 3.317229 -6.746985 3.770244 3.784142 -0.209674 0.788777 1.949964 3.717420 -11.823737 -2.717587 -20.392676 5.857372 -1.479884 20.921829 3.832152 -0.935255 10.195597 0.000000 0.000000 0.000000 7.293327 23.281607 -34.237374 10.438522 -17.421667 1.604471 8.127576 1.080751 23.733906 0.000000 0.000000 0.000000 -7.125000 0.000000 0.000000 -13.018642 6.537190 -11.766797 0.000000 0.000000 0.000000 -12.443209 -14.568365 57.551225 -31.261271 -41.950062 -12.244179 -37.844990 -8.578030 13.295646 0.000000 0.000000 0.000000 7.125000 0.000000 0.000000 -9.995121 46.392685 0.345489
